<svg width="18" height="18" fill="none"><path fill="#A1A3A5" d="M7.98 9.361h1.604v5.15h1.718v-5.15h1.703V7.643h-1.703V6.78c0-.474.385-.859.86-.859h.858V4.203h-.859A2.577 2.577 0 0 0 9.584 6.78v.863H7.981v1.718z"></path><path class="border" fill="#A1A3A5" fill-rule="evenodd" d="M1.854.768h13.743c.949 0 1.718.769 1.718 1.718v13.743c0 .949-.769 1.718-1.718 1.718H1.854c-.95 0-1.718-.77-1.718-1.718V2.486c0-.95.769-1.718 1.718-1.718zm0 1.718v13.743h13.743V2.486H1.854z" clip-rule="evenodd"></path></svg>