<svg width="20" height="20" fill="none"><path fill="#AFB1B2" fill-rule="evenodd" d="M13.333 1.667H6.667a5 5 0 00-5 5v6.666a5 5 0 005 5h6.666a5 5 0 005-5V6.666a5 5 0 00-5-5zm-10 5a3.333 3.333 0 013.334-3.334h6.666a3.333 3.333 0 013.334 3.333v6.667a3.333 3.333 0 01-3.334 3.333H6.667a3.333 3.333 0 01-3.334-3.333V6.666zm6.667 7.5a4.167 4.167 0 110-8.334 4.167 4.167 0 010 8.333zm0-1.667a2.5 2.5 0 100-5 2.5 2.5 0 000 5zm5-6.667a.833.833 0 11-1.667 0 .833.833 0 011.667 0z" clip-rule="evenodd"></path></svg>