<svg width="18" height="18" fill="none"><path class="border" fill="#A1A3A5" fill-rule="evenodd" d="M16.657 3.034l1.216.14-.547 1.09-.8 1.593a1.258 1.258 0 0 1-.17.34c-.034.053-.151.224-.157.232a1.788 1.788 0 0 0-.07.112v2.041c0 5.224-5.082 8.543-9.881 8.543-.982 0-1.728-.047-2.583-.233-1.406-.305-2.452-.912-2.93-1.972L.24 13.83l1.198-.11c1.084-.099 2.024-.304 2.745-.58-1.98-.316-3.09-1.182-3.09-2.807v-.854h.858c.189 0 .36-.016.511-.044C.977 8.55.232 7.132.232 5.164v-.173c-.006-.992.047-1.522.32-2.198.175-.434.428-.835.768-1.202l.648-.7.63.716C4.677 3.967 6.73 5.4 8.827 5.574c.009-2.18 1.664-3.828 3.866-3.828a3.84 3.84 0 0 1 2.69 1.086c.4.082.825.15 1.275.202zm-1.9 1.413l-.263-.06-.181-.198c-.44-.48-.992-.734-1.62-.734-1.258 0-2.149.891-2.149 2.137 0 .203-.005.331-.03.5-.102.67-.48 1.209-1.259 1.209-2.575 0-4.9-1.373-7.165-3.717-.117.353-.144.716-.14 1.397v.183c0 1.75.713 2.708 2.4 3.241l.6.19v.625c0 .758-.722 1.471-1.779 1.79.485.366 1.475.563 3.077.563h.86v.855c0 1.224-1.415 2.183-3.552 2.684.697.212 1.625.303 2.692.303 3.964 0 8.163-2.741 8.163-6.832V6.446c0-.25.073-.469.194-.695.048-.089.1-.173.165-.27l.093-.136.068-.136.33-.658c-.17-.032-.339-.067-.503-.104z" clip-rule="evenodd"></path></svg>